<svg xmlns="http://www.w3.org/2000/svg" width="1600" height="480" viewBox="0 0 1600 480" role="img" aria-label="Vyzium — Gestão Operacional e Follow-up">
  <defs>
    <linearGradient id="bg" x1="0" y1="0" x2="1600" y2="480" gradientUnits="userSpaceOnUse">
      <stop stop-color="#011F4A"/>
      <stop offset="0.55" stop-color="#052D56"/>
      <stop offset="1" stop-color="#064A68"/>
    </linearGradient>
    <linearGradient id="brand" x1="180" y1="350" x2="470" y2="80" gradientUnits="userSpaceOnUse">
      <stop stop-color="#003B73"/>
      <stop offset="0.48" stop-color="#00A7B1"/>
      <stop offset="1" stop-color="#00E5FF"/>
    </linearGradient>
    <linearGradient id="line" x1="0" y1="0" x2="1" y2="0">
      <stop stop-color="#00E5FF" stop-opacity="0"/>
      <stop offset="0.5" stop-color="#00E5FF" stop-opacity="0.9"/>
      <stop offset="1" stop-color="#00BFA5" stop-opacity="0"/>
    </linearGradient>
    <filter id="glow" x="-50%" y="-50%" width="200%" height="200%">
      <feGaussianBlur stdDeviation="18" result="blur"/>
      <feMerge><feMergeNode in="blur"/><feMergeNode in="SourceGraphic"/></feMerge>
    </filter>
  </defs>
  <rect width="1600" height="480" rx="22" fill="url(#bg)"/>
  <circle cx="1350" cy="-80" r="330" fill="#00E5FF" opacity="0.055"/>
  <circle cx="1510" cy="410" r="260" fill="#00BFA5" opacity="0.055"/>
  <path d="M1030 0h250l-210 480H820L1030 0Z" fill="#00E5FF" opacity="0.035"/>
  <path d="M1190 0h120l-210 480H980L1190 0Z" fill="#00BFA5" opacity="0.05"/>
  <g opacity="0.4">
    <path d="M70 96h170l44 34h120" fill="none" stroke="#21D7E2" stroke-width="2"/>
    <circle cx="70" cy="96" r="5" fill="#21D7E2"/>
    <circle cx="404" cy="130" r="5" fill="#21D7E2"/>
    <path d="M1220 118h150l42 32h120" fill="none" stroke="#21D7E2" stroke-width="2"/>
    <circle cx="1220" cy="118" r="5" fill="#21D7E2"/>
    <circle cx="1532" cy="150" r="5" fill="#21D7E2"/>
    <path d="M1260 328h120l42-34h110" fill="none" stroke="#00BFA5" stroke-width="2"/>
    <circle cx="1260" cy="328" r="5" fill="#00BFA5"/>
    <circle cx="1532" cy="294" r="5" fill="#00BFA5"/>
  </g>
  <g transform="translate(120 80) scale(2.45)">
    <path fill="url(#brand)" d="M12 44h17l13 24c9-4 17-12 23-24l15-3C72 62 58 78 38 86L12 44Z"/>
    <path fill="url(#brand)" d="M39 88c22-9 40-29 49-56l17-5C96 64 74 91 48 104L39 88Z"/>
    <path fill="url(#brand)" d="M54 107c24-16 43-48 52-88l17-5c-10 53-34 91-60 108-4 2-8 0-9-4l-5-9 5-2Z"/>
  </g>
  <g transform="translate(500 126)">
    <text x="0" y="92" fill="#FFFFFF" font-family="Segoe UI, Arial, sans-serif" font-size="92" font-weight="800" letter-spacing="1">Vyzium</text>
    <rect x="2" y="116" width="610" height="4" rx="2" fill="url(#line)"/>
    <text x="3" y="164" fill="#A9C9D9" font-family="Segoe UI, Arial, sans-serif" font-size="29" font-weight="600" letter-spacing="3">GESTÃO OPERACIONAL &amp; FOLLOW-UP</text>
    <text x="4" y="212" fill="#7FA4B8" font-family="Segoe UI, Arial, sans-serif" font-size="20" letter-spacing="1">Compras • Fornecedores • Prazos • Acompanhamento</text>
  </g>
  <g transform="translate(1250 66)">
    <rect width="270" height="42" rx="21" fill="#FFFFFF" opacity="0.08" stroke="#34DCE4" stroke-opacity="0.35"/>
    <text x="135" y="27" text-anchor="middle" fill="#CBEAF0" font-family="Segoe UI, Arial, sans-serif" font-size="14" font-weight="700" letter-spacing="1">DESENVOLVIDO PELA SOLUCIONX</text>
  </g>
</svg>
